<?xml version="1.0" encoding="utf-8"?>
<!-- Generator: Adobe Illustrator 19.0.1, SVG Export Plug-In . SVG Version: 6.00 Build 0)  -->
<svg version="1.1" id="Ebene_1" xmlns="http://www.w3.org/2000/svg" xmlns:xlink="http://www.w3.org/1999/xlink" x="0px" y="0px"
	 viewBox="0 0 283.3 88.1" enable-background="new 0 0 283.3 88.1" xml:space="preserve">
<path fill="#E30613" d="M0,29.2h29.5V-0.3h29.5v29.5h29.5v29.5H59.1v29.5H29.5V58.7H0V29.2z"/>
<g>
	<path d="M112.9-0.5h10.6c6.3,0,11.1,4,11.1,12.1c0,7.1-3.6,12.4-11.1,12.4h-10.6V-0.5z M118.3,19.5h4.8c3.1,0,6.1-1.9,6.1-7.3
		c0-4.9-1.7-8.1-7.1-8.1h-3.8V19.5z"/>
	<path d="M141.6,16.3c0.1,3.1,1.6,4.5,4.4,4.5c2,0,3.5-1.2,3.8-2.3h4.3c-1.4,4.2-4.3,6-8.3,6c-5.6,0-9.1-3.8-9.1-9.3
		c0-5.3,3.7-9.4,9.1-9.4c6,0,8.9,5.1,8.6,10.5H141.6z M149.5,13.2c-0.4-2.5-1.5-3.8-3.9-3.8c-3.1,0-4,2.4-4,3.8H149.5z"/>
	<path d="M173.9,24h-4.6v-2.5h-0.1c-1.2,2-3.4,2.9-5.4,2.9c-5.2,0-6.5-2.9-6.5-7.3V6.3h4.9v10c0,2.9,0.9,4.4,3.1,4.4
		c2.6,0,3.8-1.5,3.8-5.1V6.3h4.9V24z"/>
	<path d="M183.9,6.3h3.6v3.3h-3.6v8.8c0,1.6,0.4,2.1,2.1,2.1c0.5,0,1,0,1.5-0.1V24c-0.8,0.1-1.9,0.2-2.8,0.2c-3,0-5.6-0.7-5.6-4.2
		V9.5h-2.9V6.3h2.9V1h4.9V6.3z"/>
	<path d="M193.9,18.2c0,2.1,1.8,3,3.7,3c1.4,0,3.2-0.5,3.2-2.3c0-1.5-2-2-5.5-2.7c-2.8-0.6-5.6-1.6-5.6-4.7c0-4.5,3.9-5.7,7.7-5.7
		c3.9,0,7.4,1.3,7.8,5.7h-4.6c-0.1-1.9-1.6-2.4-3.3-2.4c-1.1,0-2.7,0.2-2.7,1.6c0,1.7,2.7,2,5.5,2.6c2.8,0.7,5.6,1.7,5.6,5
		c0,4.7-4,6.2-8.1,6.2c-4.1,0-8.1-1.5-8.3-6.2H193.9z"/>
	<path d="M220.4,12.5c-0.3-2-1.6-3.1-3.6-3.1c-3.1,0-4.1,3.2-4.1,5.8c0,2.5,1,5.6,4,5.6c2.3,0,3.6-1.4,3.9-3.6h4.7
		c-0.6,4.7-3.9,7.3-8.5,7.3c-5.3,0-8.9-3.8-8.9-9.1c0-5.5,3.3-9.6,9.1-9.6c4.2,0,8,2.2,8.3,6.7H220.4z"/>
	<path d="M228-0.5h4.9v9.2h0.1c1.2-2,3.4-2.9,5.2-2.9c5.2,0,6.5,2.9,6.5,7.3V24h-4.9V14c0-2.9-0.9-4.4-3.1-4.4
		c-2.6,0-3.8,1.5-3.8,5.1V24H228V-0.5z"/>
	<path d="M252.1,16.3c0.1,3.1,1.6,4.5,4.4,4.5c2,0,3.5-1.2,3.8-2.3h4.3c-1.4,4.2-4.3,6-8.3,6c-5.6,0-9-3.8-9-9.3
		c0-5.3,3.7-9.4,9-9.4c6,0,8.9,5.1,8.6,10.5H252.1z M260,13.2c-0.4-2.5-1.5-3.8-3.9-3.8c-3.1,0-4,2.4-4,3.8H260z"/>
	<path d="M271.5,18.2c0,2.1,1.8,3,3.7,3c1.4,0,3.2-0.5,3.2-2.3c0-1.5-2-2-5.5-2.7c-2.8-0.6-5.6-1.6-5.6-4.7c0-4.5,3.9-5.7,7.7-5.7
		c3.9,0,7.4,1.3,7.8,5.7h-4.6c-0.1-1.9-1.6-2.4-3.3-2.4c-1.1,0-2.7,0.2-2.7,1.6c0,1.7,2.7,2,5.5,2.6c2.8,0.7,5.6,1.7,5.6,5
		c0,4.7-4,6.2-8.1,6.2c-4.1,0-8.1-1.5-8.3-6.2H271.5z"/>
	<path d="M113,31.6h13.2c4.4,0,7.2,3.1,7.2,6.8c0,2.9-1.2,5-3.9,6.1v0.1c2.6,0.7,3.4,3.3,3.6,5.7c0.1,1.5,0.1,4.4,1,5.8h-5.4
		c-0.7-1.5-0.6-3.9-0.9-5.9c-0.4-2.6-1.4-3.7-4.1-3.7h-5.4v9.6H113V31.6z M118.4,42.7h5.9c2.4,0,3.7-1,3.7-3.5
		c0-2.4-1.3-3.4-3.7-3.4h-5.9V42.7z"/>
	<path d="M145.4,37.9c5.6,0,9.2,3.7,9.2,9.4c0,5.6-3.6,9.3-9.2,9.3c-5.6,0-9.2-3.7-9.2-9.3C136.3,41.6,139.9,37.9,145.4,37.9z
		 M145.4,52.9c3.3,0,4.3-2.8,4.3-5.7c0-2.8-1-5.7-4.3-5.7c-3.3,0-4.3,2.8-4.3,5.7C141.1,50,142.1,52.9,145.4,52.9z"/>
	<path d="M163.9,38.3h3.6v3.3h-3.6v8.8c0,1.6,0.4,2.1,2.1,2.1c0.5,0,1,0,1.5-0.1v3.8c-0.8,0.1-1.9,0.2-2.8,0.2c-3,0-5.6-0.7-5.6-4.2
		V41.6H156v-3.3h2.9V33h4.9V38.3z"/>
	<path d="M173.9,48.4c0.1,3.1,1.6,4.5,4.4,4.5c2,0,3.5-1.2,3.8-2.3h4.3c-1.4,4.2-4.3,6-8.3,6c-5.6,0-9.1-3.8-9.1-9.3
		c0-5.3,3.7-9.4,9.1-9.4c6,0,8.9,5.1,8.6,10.5H173.9z M181.8,45.3c-0.4-2.5-1.5-3.8-3.9-3.8c-3.1,0-4,2.4-4,3.8H181.8z"/>
	<path d="M193.3,50.3c0,2.1,1.8,3,3.7,3c1.4,0,3.2-0.5,3.2-2.3c0-1.5-2-2-5.5-2.7c-2.8-0.6-5.6-1.6-5.6-4.7c0-4.5,3.9-5.7,7.7-5.7
		c3.9,0,7.4,1.3,7.8,5.7H200c-0.1-1.9-1.6-2.4-3.3-2.4c-1.1,0-2.7,0.2-2.7,1.6c0,1.7,2.7,2,5.5,2.6c2.8,0.7,5.6,1.7,5.6,5
		c0,4.7-4,6.2-8.1,6.2c-4.1,0-8.1-1.5-8.3-6.2H193.3z"/>
	<path d="M112.9,63.7h5.4v10.1l9.6-10.1h6.7l-9.6,9.7l10.5,14.8h-6.8l-7.4-11l-3.1,3.1v7.9h-5.4V63.7z"/>
	<path d="M137.2,70.4h4.6v3.3h0.1c0.9-2.2,3.3-3.8,5.7-3.8c0.3,0,0.8,0.1,1.1,0.2v4.5c-0.4-0.1-1.2-0.2-1.7-0.2
		c-3.6,0-4.8,2.6-4.8,5.7v8h-4.9V70.4z"/>
	<path d="M153.9,80.5c0.1,3.1,1.6,4.5,4.4,4.5c2,0,3.5-1.2,3.8-2.3h4.3c-1.4,4.2-4.3,6-8.3,6c-5.6,0-9.1-3.8-9.1-9.3
		c0-5.3,3.7-9.4,9.1-9.4c6,0,8.9,5.1,8.6,10.5H153.9z M161.8,77.4c-0.4-2.5-1.5-3.8-3.9-3.8c-3.1,0-4,2.4-4,3.8H161.8z"/>
	<path d="M185.9,88.1h-4.6v-2.5h-0.1c-1.2,2-3.4,2.9-5.4,2.9c-5.2,0-6.5-2.9-6.5-7.3V70.4h4.9v10c0,2.9,0.9,4.4,3.1,4.4
		c2.6,0,3.8-1.5,3.8-5.1v-9.3h4.9V88.1z"/>
	<path d="M188.6,84.5l9.2-10.4h-8.5v-3.7h14.9v3.7L195,84.5h9.9v3.7h-16.3V84.5z"/>
</g>
</svg>
